/* XPM */
static char * batbatbutton_xpm[] = {
"400 35 87 1",
" 	c None",
".	c #9D9DFF",
"+	c #9C9CFF",
"@	c #9B9BFF",
"#	c #9F9FFF",
"$	c #A0A0FF",
"%	c #9E9EFF",
"&	c #A1A1FF",
"*	c #A4A4FF",
"=	c #A7A7FF",
"-	c #A5A5FF",
";	c #A6A6FF",
">	c #A8A8FF",
",	c #AAAAFF",
"'	c #ABABFF",
")	c #ACACFF",
"!	c #ADADFF",
"~	c #AEAEFF",
"{	c #AFAFFF",
"]	c #B0B0FF",
"^	c #B1B1FF",
"/	c #B2B2FF",
"(	c #B3B3FF",
"_	c #B4B4FF",
":	c #A9A9FF",
"<	c #9A9AFF",
"[	c #9999FF",
"}	c #9696FF",
"|	c #9595FF",
"1	c #9797FF",
"2	c #9494FF",
"3	c #9898FF",
"4	c #9393FF",
"5	c #9191FF",
"6	c #9090FF",
"7	c #8F8FFF",
"8	c #8D8DFF",
"9	c #8E8EFF",
"0	c #9292FF",
"a	c #A3A3FF",
"b	c #A2A2FF",
"c	c #8B8BFF",
"d	c #8A8AFF",
"e	c #8989FF",
"f	c #8C8CFF",
"g	c #8787FF",
"h	c #8686FF",
"i	c #8484FF",
"j	c #8585FF",
"k	c #8888FF",
"l	c #8282FF",
"m	c #8181FF",
"n	c #8383FF",
"o	c #B5B5FF",
"p	c #B6B6FF",
"q	c #B8B8FF",
"r	c #BABAFF",
"s	c #BDBDFF",
"t	c #BFBFFF",
"u	c #C1C1FF",
"v	c #C2C2FF",
"w	c #C3C3FF",
"x	c #C4C4FF",
"y	c #C6C6FF",
"z	c #C5C5FF",
"A	c #C0C0FF",
"B	c #BEBEFF",
"C	c #BBBBFF",
"D	c #BCBCFF",
"E	c #B9B9FF",
"F	c #B7B7FF",
"G	c #8080FF",
"H	c #7F7FFF",
"I	c #7E7EFF",
"J	c #7D7DFF",
"K	c #7B7BFF",
"L	c #7A7AFF",
"M	c #7C7CFF",
"N	c #7777FF",
"O	c #7878FF",
"P	c #7979FF",
"Q	c #7575FF",
"R	c #7474FF",
"S	c #7676FF",
"T	c #7373FF",
"U	c #7272FF",
"V	c #7171FF",
"....+@++....#$%##&$%%#&&*=--*---=*-;>,,'),!~{]]^^/(^{^{]{{{]^]]^/_(/]~{]]]^{!!))!'))',',,,:,'',)~{{{!~{]{]{!~!)!!~{)))''))',>,::>,::=:)')')'>=>>>===;-;--*-;>>;:>=>,'')!!',>::>;-*&&#%%#$%%#%###$$$&&$#.@<+<[[<}}|}|}11[11|2}|3}}31}|}|||45567789966505504540466577997540455050504402}}}||2}2450400000|22}33}3<@<<[[3133}|}1[[<[[[[<++%+%%####$#..@.++@<<<[3[<@@..%##$###%++.%.+@<3333}}333[<[31[[[<[3333||12240",
";***&*-**abb**-**;;;;*a**;--==:>;>>>>:>==;;=>:'')',,'~!{~))!~!!!{^]]]{~~~~)!~!!~!~{^^]!~!))'))'!!,'''',>;;=::;>;>,,!{]^^]^]^(^{~~{{!{]{]~{{~){{~!!!!!~~':'>,:>=;--*aa&%%.%#%#%%#.@.@++%...+@@@<@@<[[[[<[[<+<[11}||1|05505545667798ccdeecc89778f98ccceghiijiggggkdkghhggggeekekkkedeghhkkkcfcf996004204|04|11}<<@+@.%#$&b&ba*;**-;aabb&&bb&&#%%..$#.%%.@@.<+<[3|||4||}|1}22|22}|2057797650|4244|||222006050560579",
"''''))),,,:>>:>>=>==;-=>>:,,,''),)))'')!!~~~~~{~!~]]]]]]/^/{]{~~~{{{{~!'),''),':)',,:==*-ab&bb##.+@....#%%&&baabbaa-*-bb&b&bb&&b&&&aba-;-;>===;aaaaa&$$#%..++@@[[[3[13[331}|22004065578777766678798897766550066559798ffdfffcdedgegekgeddeedfc8ddgghjilllmlnlmnniijgghkeeedcdcfff9ccc8ffcdkdcccff88997776005650542404224113111<[13<<[<+.%##.%...#%.%.+++..+@@+..%.++[[3[[<3311|}|}}}|22}}}1}2224422|}2||}25679976",
"**--ababaaa--=>>,,''!!~~!!!!!!~!!!~~{!~!!',))))))!~]]]^]]~!{!!!!!)'!!{~{^///////]{{~{]]{]{]]]{~~)'>;-;;--aaabaa&&##.@@<@@+@@+##%.+<333|}}|1}[@++++.<@.++.$$#%.%#$%%.@[[3}24042}1}11133|}2056779000445797700055575400044405700556997789766678fffdceekdddkedkeeheedccffcccdcddccdc8f899966565055550675676665566678f9777756564054056777976654224405444||1|}1}3[3[33[1|}}}2|20002002||44|006650067679f99978f97989976",
"^(/(opqrsstttuuvuvwwvwxwwvyzxyyzyywuAuvAuAtttsBsCDCCrEFppo_//^^/_(//]]{{]]{{{!!{~)')'''),::,,:>-;=>=>>:,'''=;;;**b$$$##$$$&&&aabb&bab---;---a&bab&#$..@+<<[[<+.+.+..+.@@@[3113[|}00666604067776700402|}}||2|2205665022|111|3[<<@<@<<[@@@<<<[[31}}}|2|2|}||11333|42598cfcddekkgkggjjgeeeekkgkkkkeeekgkedegeedff767777560004||1[3111}113<@@@%%..@++@[[[113}1133[<[}|2}|}|206055665668ccdegghghhgghhhkkeginmmGHGmmm",
"')',),)!!~)~{{]]{]!{^//(^((((o__((^//_oo_opp_oFooo__opqqFEEECrrEEqFFqEqFqFqqpqFFFo(^/]~~{!!{!~'',>=*&#%%@@@@<@@+@@<@<[<@++.%@@.%#$&##$$#$&---***-;;-=:,:,,:>,:::>:=*-aaba*b$$$#$&#.@@<3}}111|4211}}1|0|24079977676788ddcehjkhjjghggkeghkdfdekhnnlnmmGlijjhhhhjjghkgkdf8eeedkkgiiiijjjjggkgdcfcfffdeeeggghhggkedkkghgdccf9f7966669978955666502422}}24|2}|24|}1333}}}}|1|||444245079860069899ccfffcfcffcdghhkkgghj",
"__Fqpo__oo____o_(___po_(_oFFFp_oo/((_(((//(_/_(/((_oopopo___o((/^(_(/^{!{{/^{/{~~~)'',>:,,>>>=;-**-;-=;=;;-----;>>:,,:;-=;=>==,'!~]{~))'::,,,,,,'::>>:,,',,'::':>>>>>>=;=;;-ab#$$#$$&b*abb&$$&$$$%..<[11}}240040555689967969976679fcccfcddddkeghkeckeedf8cf99888777677f998cecekdcccdcddd9898ffcf979999f8876579989604042}|3<+@@<.%%$#.%%&b##$$###$&&#%.+.%#%%+<<33}11|445076998cceekhnillmGHIIHIHGGGHIIIJIIJIIGGI",
"_FpppopErrCDCrEErrCDBssBBDsDtttBsBBBtttBBsBsCrrCCCDDCECCtttBtBBBsBBBBBBAttBBBBDDCrqFoo(__o(/^{~',':>;*-;;--a**ab$&#.++@+<<++.#$$$$##$%&$$ba-=::',))':,,:==>=>;=;-*;-;;;=;abb&bbaab#$#.+@[1}|1}220442|4044|2|}|440067888ffekhjhhjijnlmmmmGIHJGHIJKJIIIJIIIHHIIJIIHIHGHlnijihheedc8cceecdfddf89978879888f777779798777789997888996550560575556505022|313[<<<[[<[3131}|2442050799f88ffcekkghghhjillmGGHHHHHHGmilnihg",
"EEFqqErErrEFFqqErrEErCEEEqEEEEFFoFFpFFppoFFFFoqFpoo____o(]^]{{]{!!{]{{!)'')')::,,>>>>>;;*-*---*;---**;=;=;=;>:=;--;;;;*-*;-*a-;=====;;-****bb&bb$&%#..++@[[3[[[<@<+<@<@@++<311}|}242400|2|}|1|1}11}}}}2|21|440420576988c8f88964004066789f88fddc8f879cdccf8eeccfff7976556788fc88897779fc8f8cceegkcfdeeef8ff898c8667755000455005554222}|}1[3[311[@@+<<@@[1331|2|22056657999977666550677998feekgihnlmmnnlmllHHIHGJI",
"!~{]~~!]^]]~]^/^/(_(_(_(_(/^/(_(_((^//(]{!~]{{~{/(((]]{^{~))))'')')!)~!~~~!{~{!!)''))))'!''),:,,''')~]/((/(^]]{{{]^]]{~!')!{]^/{{~~!)),=>>=;;--*b&%.@<3[<<333|42422|}|}||||[[<<@@+...+@<<311}111113}}|}2050045565676766ffcfff89988f8d8fdfdeecddddcff86655567fcfcdegegkghkjhjggkkcec89f998776057788988ccc85050422}13[3<33|}|}}1133@+@<@<<31[<@<<<@@@+%.@[[311133}}}1}113}}131|05507676067998fccccgjjjkekggillGJII",
"_(/^^]^^]^{~~{^]^/_(((ooo(__(oopFFp_o_((p_ppoopFqEEEEEECEEqrrrFqrEqFFFFqqo(/^^^/{{{{)!!!{~~!))))')),',':>=:,>>;;==;***;;====>::::>>=---*&bb&a&$#$%.#%#%+@@@@+<[313}}||2|||444556056506006576600667660655566540424424004442|}|}}1}1|2||}}|42}|||}|1|}||}}|2||}122|}}}1}2||22222||}33<3[33<<+<<3<3[<<@+.<<[3@+@<<@..#.%#&bb-*a&&&$bbb$#$#%%#$%%#%++@%%%%..#%.<13[31}405986798ccffcdegegghhiniinlmllGHIJIImmHJIHHHI",
"vvuuAuuvAtsrCEEqFFFEqFFqqEEqpo_pFpqqo((oFFqCDssssCDDsssBsDDDCCrrErEEppopppFp_(]{///]{~{{'::::::,:,,')~!,''',,::>',':,,,::,)!)!!!)~',)~~''':>::=;;*a--**;;>;=*b&&$##$b$##&##b&$$&&$%#.%%++<+@<<<<++@333[3[@<.@+@<[[[[3[32|}}}2}}}1|11}3113[311113}}}||240400550655670556676655567677699006605076655422}1133[[[331[133<[[333333<<<[31}1}2|}[[<<<<[[1}}}|244240502|42|2200457ffcddeddfceggkggjgggjjjijiijiiinlGGGIG",
"sBBsCrCDCCCEqpFpopqqFo((/_o(^//_ppppppoppo((///(ooo_pqFqFqqqqEFFFFFqFFopppFp_((___(^{]^{]{~)',:::>>=,::>>>=======--;;=---*****;;--;;;;=>;*--**a*aa--*aaba**bb--*-*-===::=;aa*ab&$$&ba*a&$##%#.++%#.%%%..+<@.@+[[[[1|1|1}}11111}}1}}}331}}1}}}}11|4|2425555000424442|2||2|0404042004224245000422|[1[33<<<<[[33[33<31313[[[[<[+..%%##$$$$&&$$#.#%&&##%.++++.+<@.%%%#%$#$$$%.%+[[[[<[[33<[[<1}2066565679998cckggjim",
"pFECrrtssBsCrCsABBttBtDsCrrqoppooppooppqqqEEEFo(oo/(oFFFpoo(pppqqqEFqEqECCCDBsDsDrrFqqFqqrrrqqqpp(_ooFop(/{~~!!~!~{))',:>>>===*abb*b&&*a&&&b&&$&b$$%#%%##$#%%.%$##$$%.@@@<.%..+.+++.###.+++@+<[[@.++<[[<[[}11}||13@[3<[331|2|4667977798f8899fcff8888988f89799ff8fdff8cddccffcdddccf9ff8899fdcffccfff888975604|0242||2||}|11[3<3||2|}}33<<<@[<[@+@3[[31311|}|2222|00005060644424400000660677988deeehjhinmGlmHGllG",
"uuAAAuAvwvwutBDDsDCDsBBDDCrCCCrrEqrECrCDErrqqqEqFpqooooppoFpo__oppopFErErEEFFoppopopFFErFpFo_o/(///_oopo__(//^~~~~~!''!!]^{~{{!~~~)'~~!!~~~{!~!,:,=>>===-**bb#..#%%.++.@[[@[1}}}}242405556656978f89997555057998996989ff89976966667554400054040554000444||2}}46505206667f88f8879888f897975440040222|2|1|2||}|204222}1331}13[33[<<[[3122|222205402450440004|224|4}404|407667888889679979899ffccfff88988fccckkjhkkg",
"CCCssBBsBBtBtBBBBBsBCEDsDDsDDBuAAttutDBBBCDCrrrrrEEEEppFpp_p__ppoF_/^^^{{!',')':,::==;;;-*aabbbbbaaaaa*abab&b**;--*;;>=>=>,,>,::=>>:>:,:,,>>===;;;-=:=>=--a$b&&&ba;*$##.%...%%%%$$$&$%$$$$&$#&a&##+%$%#&&$#%+@3[+.+%@+.++.<[31|2131|2}4|}|44||}}||}}222444244444|1|1}2|}}|13}4||}|11}24244224244||11}}|1}}||20042|||2|404445577f8866567979777699998fcf99979989f77798f8f9ffc88cdeceekedeehhhjgggkhiilnnnmHJJLMKKL",
"vuuAtuuuAtAtBAvwuvwvvAttAutBDrErrEp_((/(/_o((o__o_////^/^~!,''===:,,,:,'))~~)!~]^]~~{{~]~~{{~]^^/o_(_opqqqCCrCFpo(^{]{!,)'''!)!)'),,,,:>=---*b*b&$%%..@@[333[@.##$%%.%#.[<@@@[<[[1}}}1}2245054044|11[[<++@[31}}1}44442|4222}}331111[3}13[[[[3}005779fcffcfff8776569799fedddfcf9cc999897898777665506555500506500555500505077967777887977779fccf9999998777999997755550540|44245466778fff88fccekggggjiinmllnmnmGGGG",
"utBDEFoppFFpFFpp__(((/{/]/~~~!'')')')!~!)':>>,')~]]/]~~]{{{{{!~{{{^{/~^^^^^/]]~~)'',>:::,>:,:>>=>==;;;;>>=-*babb$ab&bba$$$a&&$%..+.+.%#.+<<[@+@<[[[[3<+<+++++@+@@<<<<[3133@@+.++@+311[33}}3[[31|||2|400044555577666797755666699766677988fff8798879998f8765505660069fccfcdcf8fccfff8f9756776655555550067655000021[<[@+<++%%%..%.%.++..%$&.+...$$##&b&b*a*-=;abaaabab&##$ab&&&$&##%%%..%<<+@<3}}2|45579889fcdkeehh",
"BCEqrrqFFFErrEErrEqqEEErEqqEFpqEEFpo(//]{~!{^//(]]^//^{!!)!~!!~!!!)'))')!!!!)!]]^^^(__/^]((]^//(((oFooo(((//]~!)')!,'')')!'','!!)~{~!)'))'',,,:>:::,,,::,''),>>,:>>=;-;;;=;;ab$#$&&bbbaa&abbbab&$&&&$#&%#b&$###%+@1111}}1}1|}24456779879fdkedkkghinhhhhgghefcf767997755065504042}}|2}3<[[[<@+%$%%@+++@31<[<<<@@<[}}11}}221|2002|}}}1|2222|00424654420056677765554244255500678cddeedegggkgggkhjjllnlllllmmmmmHIJK",
"wxvvwuutAtBsCDDDCrrrqEFppo___^/^{{^^^]//^^]]]^]]]^^(^{]{]]~!~]{!]{^]]]/^^^^/(/]{!)')!)!!'''::>>=:,:,:=::,>:':>=:,:>,>==>;;=;;-*aab&$$&&bbba&#%.#%$$$%$#.%+@[3331<<3}}44||[<<@@@+@[<[3333[@<31[31|4005452444454404|24|004550502222400500425022||}11[3[}3}1}}33331}31|11|11||1[31111133[111331}|24046555442||}}13[[[<[[<[[1[<3[11}|444222}|}}}1331}}}||4222005667676788c9565404}|1}}1|}|3[333[[3331311}|}1|}1|4|||",
"CDCrqqqrrsBssBDDCEpppppopFppo_(_o((_pFpFo_(]{!{]]{!''>;:>>:>:=>==;;;*baa-*-**---*-;;=::))!)'')){]]^^]{)!!{{{]]^/^^/^^/^(//^]~~!),>;*-==:=>:==:=-;:,>>===*b&$bb&&$&bb*bbaba*a-*--;*-**b&$%#&$&%#&babbb*--*-;=--a&%#$#$%+.@@@[1311}3[[[3}|||4479689fekkekkcceecdkkekddddd8899f8ccdeeeeedccccc88600|44450|}|||}}}333[[3311[[<<[[@@@+@+..%#..%%%..+@+@<<@+....%..<@@<<[1333[@<<[[<[[<[13|2|2422445666677978997788997",
"CDsDsCCrrrCrrDDDCErEqppo___(^{{{]!!)!)!{~!~!{{!)~~!!)~)!~),)'''',','!)~]]^{~{]]^(__//^]]{~{^{^/^/{^]]^//(_(//^/^]]]~~!!{!!{!)'',')))'),>:>=;-;aaa*b$###%##%#$##$$&&aaabaaabb&&&&$#$%##$$$$$b#%$&b&babb**ab$&$#$##%%%%%$#%.++%##&&&baaa-***b&$#%..%<[3331|}242|20006979998ffceekkgkggkhkkdcf89f88897650405650555421333<[3[@[[<[[3[@[++@<<<+.+.@++@<<<@<@@@@+++<<[[13<1}|||22|442560240566605650442120007798988898",
"CEqqqpooo__oo_(o///^]^]]]]^{{]!),,,,:,'',)))'')~{~{!!~!,>=>>>:>,'!~':,>>=;=::,>>::>:,>>:>,>=--*aa**-;=;;-*-*a&$b*---*a*b-*--*&ab&&&&aaabaaaa*aaa**aab*aa---**a-=>:>=;=;==:>:=>==;a**b$#$$%##..%%$#%.@<<<3[}2442|40066789997777c88998ffekghjhihggkgkdcdccdcdcccededcddeekeccdf999996500242044|33}2422|||}1133<3}11}13}}}1}|13[[1333}}}1|}457664440056540042|22240002|}|4005566505577f89888cekdc89cdcckeddddc888fc",
"qqpFqqFqpppoo_o_/_^/]{{{~~]]{~~~{),',,)',>:>=;=;*aaab&aa*a$&abba;;;=:>;=;=;;=>:>==-;=>:',:>=:::::,=:>>,','),>;;-**;-;------;;---;-*&ba*-b&-***-**-*&$$&b*aaa-;*-*aabbab&a;;;-*-;=-**-;aa&$&&&$$&$b&&##$&$#&&$&&bb$$$%+@<<[33}[3[[[[<@+@@[<[3<}}2240779899898879888966606676888fdcfdedddckcddddfff8fddfccdkkcfcccddkeekdff87665044||}}3[@+<[<<@+.%+..%&a$#$#..@@..#.%#%..+@@@<<[1[13}}3}|}204040566967898999fcggg",
"'>>>>;;==:>>=>;>>>=,,>=;;;;--aab*a**abab-;--;;;-*abb&#&#%++<+@++<+<@@<@.%%%.+<+@.++%++#.+..###&&ba&ba**=>:::,:,,')::>:'!))'~!)''::;=;---;=====>:>>:>=*b##%%%##$$#++@<3@[[3[3@+%%#&b$$%%..<<[<<@<[<[@+@<31|242}}|}3}||}40699778f889f8f89666777677766566550065667888776566766699779998cckkedccccff89769989795005050044004442222}}}}1[1|22222}}33}|}2|}|}}2}33[31313[33333[[31311}33[@@<[3}04045004557568f88798fccd",
"EqEqqpo__/((((^])),',=;==>>>==>==,==---a**aab&$#%##$&#%.++++@@<[<@<<313[@@@%.+%%%++<331||2}1}||}|3<3[313[[<@@@+@++%++++3333}13<@<<@.#$#.%%+<[31<<@[[<@+@<@++<<3[[11[}2|}}1|}1}}245605506779ccc88f8898fdddeddecedf8977f8ff8f986555652}}1333}||20222202}2442}|||24440||0242055666767999f977968f8979897699fcceekeedecededkdc88ff997977fcekdf89988ff777766002||4||1133[3<3}1}4|2}31<+#.%%.+@@..@[<@@@<<<1}2|20045666",
"^/_/^^]{!)''),:>>:==-*b$$%%%@+<<[[[[@@@<<<1<+[133||}|}33}11}}|1}||133<[<.<<3<+++<[3@++.+@.%####%.@@<++@[[[31313<1111|11[33}2|2}44500242050050424444|}1}1|}20440444044542|}|11[[1|065565044420056576797600506055577f988cddfddc89f8fdeekgkdeefekghhhjinnijijiihhkhhgdkkhgkkhhkkdccecfcdffc8f896650540042|2222||42|}}11}}111333[[31|||||3111[<[<3331313}||1}1}}}}}1[[33||}1}}|}111}131}}2442}||}2}}||2424||2|445507",
":>::>=::,:'),'>;*;=;;-aa*b$#%.++@[13}|4555060778899ckghhhhgeekkkeecckdcccff98c888750442||}1}[331<<3}1}}}31[[31|}}}}|4444|}240656568fdcfckjjhjhkekedeeccccc9878896667888889c8f87540504||}}}22|22206777789898ff899776000050079fcf8898cccdegeedc8cdeddekgggkkgkkkhiinnjijjhghhjijjjhhggeghiiniijnjhkcccdddeed889666676960050002|2202|}}}1[[<<<@33[3[[[<[3}1}133<@<@[3333[111[3<13@++@@+.%..%#%%%##$$&$ba$%%@<3<[33<",
"=>>:','':,:===;;;--*&$$#%#&b#&&&$.+[+++<..++++@<3}}|||2|44224465507678eedekdcf8775655699987997567967988f88987777665056698ffccdff899788cfcekekgggkeekhhhgjiinliilnjnnnjnnnnllmHGmHGmmlllnihjhjjjhkkgjngdf8cf7789979677799979897888f8c98fffcdcedcf98deeedeeeekedddddddeheccddcf989887655222442404040056602044042|213311111|}}13<3313|}13113[<<[@<@+@[[@@+.+++++@<[<[[[<[<3}4}}11[33[<@<[[[<<3[[<<<<1}}}|}1131[1333",
"~~~~!)',::>>;;;abb##$#%%.@.<@<.+.+@[<@@@+%..$##%.%.%%#$&a$&a&#$##...%.+.@+@+@@@<31[}}|}|}}}}}}3[[31||1|42|||}1}|2||405998960405422|}22440678fff88ff888ffcdccffdccf9878cdkkeghkghgggjgeedfffc8c899777769998899997f877069767979cddkkhhjiinGGIMMLKMJJHIJJIMMMMKMJLLNOPPPPLLKJJHmmmGlnijgeddc8ccddc888cf8760502}3[<[1113133113<<[@@@<<@.@..%%++@...%%.+.##%##..%&b###%%#$####$&&&&.+.+..+#%.+@@@..%##.%..#%$$%####$#",
",:==;;-*&&#&b*--aaaa$%%%$#..@<<@@[<3|||2|222}|1242|42}|2055666689999cffff89cdddc88799698deecddcccedffdgkhhjeekkkehggdegeddcdccedfcfdffddcckecddeecf8695888fffff8ff99cfcdkkddkgjhjhjhhghjnnnmlmmmGmHmGmlnniiinlmmnlnijnnmlighhjjhggggjhhgghjinilnjjhjhhghhhjhijnjiggghgjgeddkgghgeeekedf877040005006542242424|22|2222|}}11[@@<[<@@+<@[[}}13}}22}}}131[@[1}}|3[<@31}1}1}24|}1333111331}2|1<<3<1}3<<@+%#&&$#%.###$$",
";--*aa**bb&#$%..@<[<@@[[@<[[[111}40566666565666788ff8877997975698999fccfcceekekekggkhjiiijjjgjiiillmmlmmHJMIJIIIIJIJIMIHHGGliiilllmGmHGIImnnijihghhggeekehhggggghhhjjghhhgkeghhhhjjhhllGIIMLKLOPLOPOLKMMIHIJLKKKPNOOQQQRSNOOSOPSNPKMIGniijhhhggkhhgjlmigeeedcffdf896760046622|0405500004042||}}1[<<[<<<<@@+.+@@+.+<@<.+@@<..$$#%%#%.$&&&bba*a*$$####$&bbabba*-->:,'))~~~)')!!))))',,,:,,::,::,!':;---*-*&bbbabb$",
"=====>=:>:;;-a&&%#%.@<3[[3}|057989799966f7767798fceghjgkdc888cdddcf8888ff8fffccdkekgekdkfc897750000577888fff8ffdekggkgeeekkghhhghhihhghhhiiiinnlinlniinllnllnijjhhinijjhkekkgkhjnmGHHIJKLPPONNONSOKJIJMIMMIHJJIHJJKLLPPPKKMKKJMIGmlnjhhkggkdehinmlnlhjjijijjjhkdkekeeddf77667605502|}1[[[<.%%%#$%####$##&$b&abb&b#$##$b&&&$&#%..%%@@++<<@<@@..@.+.%#$b$&&bb&&bba$$%#&$$$a*aba*;;;>==:>==--=;=>:>;------>::::''',",
"--=;--*-;*b&##&&%.%#%.+<31}}}}}||4022|}}24400056669fccf88cdekegjiihkekkgghijninmGHJJJJMKKLPPPOLKKKPNSNOOLOLPKKLPOONSQSSQQRQNSSNNOONPNNSQQRQRTTURRQTTRRUQQUUVVVUUUUTTRRUUTRTUTTTTQSSOOPNSNOOOLLMJIJJJJHGmGGlllmGGHHmHIIHIJJHHMJMLKKMMIIGHIIIIJHGHJIJMIHMJIIHmGlligked8ff88f89988fdcf888fddeddffcf88f99889566776898977504|||1[[1[<<.%$$&bba*;***-aa*-aa*--;*-*;;;-*-;;-=;>>':>;**-;aab&$#&a-;;>::>,,,',:'',',,,>==",
",:;;;*b$#%++@<<[31112||4042|}}}2004444559cdccdkekeddeeekkhjjjhjjhhjhhjinmlllmGIHGHMLLLLPLLMKJMKJIIIIJJIJIKJMKLPPPKPPLNNOPOLPOOPLKMMMPLLKMIJMJIHGGlmHHmGmlGmllGHHHmmHIGmmnnlGlinnnlmmmGHHIIIHHIIGHIHJMJIJMMJJJIHGmmGmIHGmmHHHJKLOOOPPMMJKKKKMHHGmlllijjhjhijjjjijgkkkgdfc85000224444}}|}2|42||1}2}}}311||}}311}11[1[3[13<[333}1|4}}||23}}1|1[13<<<.%.%$&b$bab&b$b$a-;;--;;>,',,''::,):'''',>;;--==-****bab&*a**a&"};
