/* XPM */
static char * battlebots_xpm[] = {
"32 32 183 2",
"  	c None",
". 	c #000000",
"+ 	c #050605",
"@ 	c #246B1A",
"# 	c #46CF33",
"$ 	c #2F442C",
"% 	c #191919",
"& 	c #4C4C4C",
"* 	c #B5B5B5",
"= 	c #97DA8E",
"- 	c #9FCC99",
"; 	c #B0B0B0",
"> 	c #979797",
", 	c #737373",
"' 	c #292929",
") 	c #464646",
"! 	c #C1C1C1",
"~ 	c #B1B1B1",
"{ 	c #858585",
"] 	c #BABABA",
"^ 	c #BEBEBE",
"/ 	c #7F7F7F",
"( 	c #3C3C3C",
"_ 	c #1C1C1C",
": 	c #474747",
"< 	c #8D8D8D",
"[ 	c #828282",
"} 	c #AFAFAF",
"| 	c #C0C0C0",
"1 	c #B3B3B3",
"2 	c #A2A2A2",
"3 	c #AEAEAE",
"4 	c #909090",
"5 	c #6A6A6A",
"6 	c #BBBBBB",
"7 	c #ABABAB",
"8 	c #D4D4D4",
"9 	c #ADADAD",
"0 	c #919191",
"a 	c #121212",
"b 	c #4B4B4B",
"c 	c #C4C4C4",
"d 	c #CCCCCC",
"e 	c #B7B7B7",
"f 	c #939393",
"g 	c #9A9A9A",
"h 	c #595959",
"i 	c #7B7B7B",
"j 	c #CBCBCB",
"k 	c #9F9F9F",
"l 	c #898989",
"m 	c #A3A3A3",
"n 	c #BCBCBC",
"o 	c #363636",
"p 	c #D2D2D2",
"q 	c #929292",
"r 	c #ACACAC",
"s 	c #C2C2C2",
"t 	c #666666",
"u 	c #030303",
"v 	c #4F4F4F",
"w 	c #959595",
"x 	c #B1B8B0",
"y 	c #82DD74",
"z 	c #CFCFCF",
"A 	c #D7D7D7",
"B 	c #C9C9C9",
"C 	c #B9B9B9",
"D 	c #9B9B9B",
"E 	c #3A3A3A",
"F 	c #060606",
"G 	c #B8B8B8",
"H 	c #77E767",
"I 	c #B0D2AC",
"J 	c #79F267",
"K 	c #ADE9A4",
"L 	c #A7AEA6",
"M 	c #71D662",
"N 	c #141414",
"O 	c #5A5A5A",
"P 	c #A0A0A0",
"Q 	c #CACACA",
"R 	c #99EB8D",
"S 	c #8DF07F",
"T 	c #A3DB9B",
"U 	c #73F061",
"V 	c #999999",
"W 	c #69DD58",
"X 	c #216218",
"Y 	c #414141",
"Z 	c #494949",
"` 	c #101010",
" .	c #393939",
"..	c #D6D6D6",
"+.	c #D5D5D5",
"@.	c #B9C9B6",
"#.	c #58FD41",
"$.	c #AFB5AE",
"%.	c #A0C19B",
"&.	c #505050",
"*.	c #0A0A0A",
"=.	c #969696",
"-.	c #99B396",
";.	c #A6B4A4",
">.	c #B4B4B4",
",.	c #1A1A1A",
"'.	c #11290D",
").	c #6D6D6D",
"!.	c #9C9C9C",
"~.	c #ADB6AC",
"{.	c #3D3D3D",
"].	c #A7A7A7",
"^.	c #B6B6B6",
"/.	c #359C26",
"(.	c #4EE739",
"_.	c #4E674A",
":.	c #797979",
"<.	c #838383",
"[.	c #1F1F1F",
"}.	c #1E1E1E",
"|.	c #171717",
"1.	c #8B8B8B",
"2.	c #A1A1A1",
"3.	c #888888",
"4.	c #A4A4A4",
"5.	c #0F2E0B",
"6.	c #080808",
"7.	c #181818",
"8.	c #A7BFA3",
"9.	c #C3C3C3",
"0.	c #989898",
"a.	c #B0B4B0",
"b.	c #95CA8D",
"c.	c #A1C09D",
"d.	c #66F752",
"e.	c #DEDEDE",
"f.	c #0B0B0B",
"g.	c #232323",
"h.	c #B2B2B2",
"i.	c #60F94B",
"j.	c #BEDBBA",
"k.	c #78F666",
"l.	c #A7DE9F",
"m.	c #D0D0D0",
"n.	c #AAAAAA",
"o.	c #C5C5C5",
"p.	c #6C6C6C",
"q.	c #050505",
"r.	c #DADADA",
"s.	c #96ED89",
"t.	c #8DEC80",
"u.	c #A4DC9C",
"v.	c #91D287",
"w.	c #BFBFBF",
"x.	c #A5A5A5",
"y.	c #BCCDBA",
"z.	c #90D086",
"A.	c #B2B3B2",
"B.	c #6E6E6E",
"C.	c #949494",
"D.	c #878787",
"E.	c #226519",
"F.	c #53BB44",
"G.	c #747474",
"H.	c #2E2E2E",
"I.	c #727272",
"J.	c #555555",
"K.	c #0F0F0F",
"L.	c #161616",
"M.	c #AFB4AE",
"N.	c #8BD381",
"O.	c #2F4D2B",
"P.	c #359C25",
"Q.	c #194A12",
"R.	c #151515",
"S.	c #1D1D1D",
"T.	c #7E7E7E",
"U.	c #82DA75",
"V.	c #38A528",
"W.	c #0D2709",
"X.	c #333333",
"Y.	c #5B5B5B",
"Z.	c #131612",
". . . . . . . . . . . . . . . . . . . . . . . . . . . . . . . . ",
". . . . . . . . . . . . . . . . . . . . . . . . . . . . . . . . ",
". . . . . . . . . . . . . . . . . . . . . . . . . . . . . . . . ",
". . . . . . . . . . . . . . . . . . . . . . . . . . . . . . . . ",
". . . . . . . . . . . . . + @ # $ % . . . . . . . . . . . . . . ",
". . . . . . . . . . . . & * = - ; > , ' . . . . . . . . . . . . ",
". . . . . . . . . . . . ) ! ~ > { ] ^ * / ( _ . . . . . . . . . ",
". . . . . . . . . . . . : ^ < [ [ } | 1 2 3 4 . . . . . . . . . ",
". . . . . . . . . . . . 5 6 7 ; 8 | > [ [ 9 0 a . . . . . . . . ",
". . . . . . . . . . . . b c d e f [ [ [ g 1 h . . . . . . . . . ",
". . . . . . . . . . . i | j k [ [ l m n ^ 7 . . . . . . . . . . ",
". . . . . . . . . . o > 6 p c q r s n * 1 t . . . . . . . . . . ",
". . . . . . . u v w x y z A B | C 1 1 1 D E . . . . . . . . . . ",
". . . . . . . F G H I J K p B 6 1 1 L M . . . . . . . . . . . . ",
". . . . . N O P Q R S T U | n } P V f W X Y Z ` . . . . . . . . ",
". . . .  .1 C ..+.@.#.$.%.D &.*.v f =.-.;.1 } >.O ,.*.. . . . . ",
". . . '.).1 1 n !.> ~.w !.h . . {.].1 1 1 ^.n s 3 P , . . . . . ",
". . /.(._.:.<.{.. [.}.|.f f & 1.* * 1 G ^ ] 2.3.3.1 4.*.. . . . ",
". . 5.. . 6.. . . . . 7.< ; 8.! j 9.| ~ 0.[ [ [ < r & . . . . . ",
". . . . . . . . . . o a.b.c.d.8 e.+.!.[ [ [ k 6 s V f.. . . . . ",
". . . . . . . . . g.).h.i.j.k.l.j m.7 3.n.8 o.o.1 p.q.. . . . . ",
". . . . . . . o [ ^.B r.s.t.u.v.e w.s s ; q [ x.1  .. . . . . . ",
". . . . . . . , 1 s d ^ y.z.A.B.0.w C.s 4.[ D.P > . . . . . . . ",
". . . . . E.F.> 1 1 G.H.I.J.K.. L.. H.1 } 2.M.N.O.. . . . . . . ",
". . . . . P.Q.. ( R.. . . . . . . . . S.T.1 U.V.W.. . . . . . . ",
". . . . . . . . . . . . . . . . . . . . X.Y.Z.. . . . . . . . . ",
". . . . . . . . . . . . . . . . . . . . . . . . . . . . . . . . ",
". . . . . . . . . . . . . . . . . . . . . . . . . . . . . . . . ",
". . . . . . . . . . . . . . . . . . . . . . . . . . . . . . . . ",
". . . . . . . . . . . . . . . . . . . . . . . . . . . . . . . . ",
". . . . . . . . . . . . . . . . . . . . . . . . . . . . . . . . ",
". . . . . . . . . . . . . . . . . . . . . . . . . . . . . . . . "};
