/* XPM */
static char * mini_battlebots_xpm[] = {
"16 16 86 1",
" 	c None",
".	c #000000",
"+	c #424242",
"@	c #68B85D",
"#	c #646963",
"$	c #272727",
"%	c #838383",
"&	c #969696",
"*	c #9C9C9C",
"=	c #BABABA",
"-	c #2B2B2B",
";	c #8D8D8D",
">	c #B8B8B8",
",	c #AAAAAA",
"'	c #878787",
")	c #9F9F9F",
"!	c #3F3F3F",
"~	c #525252",
"{	c #C6C6C6",
"]	c #9E9E9E",
"^	c #B4B4B4",
"/	c #A1A1A1",
"(	c #020202",
"_	c #85A181",
":	c #97D68E",
"<	c #C9D8C7",
"[	c #C3C3C3",
"}	c #B5B5B5",
"|	c #A0BB9C",
"1	c #353535",
"2	c #404040",
"3	c #A2A2A2",
"4	c #BCD5B9",
"5	c #8EDF82",
"6	c #9CC396",
"7	c #717171",
"8	c #8BAE86",
"9	c #6F836C",
"0	c #6F6F6F",
"a	c #1D1D1D",
"b	c #030303",
"c	c #256B1B",
"d	c #7A8079",
"e	c #8C8C8C",
"f	c #555555",
"g	c #5E605E",
"h	c #363636",
"i	c #949494",
"j	c #484848",
"k	c #040C03",
"l	c #404140",
"m	c #9DB29A",
"n	c #A9D3A3",
"o	c #D0D0D0",
"p	c #A4A4A4",
"q	c #888888",
"r	c #989898",
"s	c #A5A5A5",
"t	c #161616",
"u	c #0E0E0E",
"v	c #575757",
"w	c #B1B1B1",
"x	c #90EB84",
"y	c #95E18A",
"z	c #C4C4C4",
"A	c #AEAEAE",
"B	c #B0B0B0",
"C	c #ACACAC",
"D	c #010101",
"E	c #091906",
"F	c #577154",
"G	c #B7B7B7",
"H	c #8B8B8B",
"I	c #859982",
"J	c #4C4C4C",
"K	c #515151",
"L	c #8E8E8E",
"M	c #98AC96",
"N	c #323931",
"O	c #0D2709",
"P	c #061305",
"Q	c #141414",
"R	c #070707",
"S	c #707070",
"T	c #33652C",
"U	c #030A02",
"................",
"................",
"......+@#$......",
"......%&*=%-....",
"......;>,')!....",
".....~{]]^/.....",
"...(_:<[}|1.....",
"..234567'890ab..",
".cdefg'hi^>,3j..",
".k(..lmnopqrst..",
"...uvwxyzABC%D..",
"..EFGHIJKL]MN...",
"..OPQ....RSTU...",
"................",
"................",
"................"};
