/* XPM */
static char * missile_xpm[] = {
"8 8 53 1",
" 	c None",
".	c #000201",
"+	c #020B03",
"@	c #031708",
"#	c #041E0A",
"$	c #031607",
"%	c #010903",
"&	c #020C04",
"*	c #05230B",
"=	c #0A4014",
"-	c #0C551B",
";	c #0C531A",
">	c #093C13",
",	c #0B4917",
"'	c #138129",
")	c #18A133",
"!	c #179E32",
"~	c #117726",
"{	c #0A3F14",
"]	c #072C0E",
"^	c #106C22",
"/	c #1AB038",
"(	c #1ECB41",
"_	c #1DC840",
":	c #18A233",
"<	c #0D5A1C",
"[	c #05220A",
"}	c #07300F",
"|	c #1CBB3B",
"1	c #1FD142",
"2	c #1ECE41",
"3	c #19AB36",
"4	c #0F611F",
"5	c #05250B",
"6	c #06270C",
"7	c #0E601E",
"8	c #1CC03D",
"9	c #1BB93B",
"0	c #158F2D",
"a	c #0B4C18",
"b	c #041D09",
"c	c #093812",
"d	c #0E6420",
"e	c #137F28",
"f	c #117826",
"g	c #0D561B",
"h	c #020F05",
"i	c #010703",
"j	c #06280C",
"k	c #083511",
"l	c #083110",
"m	c #021005",
"n	c #000402",
".+@##$%.",
"&*=-;>#%",
"#,')!~{@",
"]^/(_:<[",
"}~|12345",
"67:890ab",
"$cdefg]h",
"i$jkl*mn"};
