/* XPM */
static char * rocket_xpm[] = {
"8 8 45 1",
" 	c None",
".	c #010101",
"+	c #070707",
"@	c #0D0D0D",
"#	c #111111",
"$	c #050505",
"%	c #141414",
"&	c #252525",
"*	c #313131",
"=	c #303030",
"-	c #232323",
";	c #2A2A2A",
">	c #4A4A4A",
",	c #5D5D5D",
"'	c #5B5B5B",
")	c #444444",
"!	c #1A1A1A",
"~	c #3E3E3E",
"{	c #656565",
"]	c #757575",
"^	c #737373",
"/	c #343434",
"(	c #1C1C1C",
"_	c #6C6C6C",
":	c #787878",
"<	c #767676",
"[	c #626262",
"}	c #383838",
"|	c #151515",
"1	c #171717",
"2	c #373737",
"3	c #6E6E6E",
"4	c #6A6A6A",
"5	c #525252",
"6	c #2C2C2C",
"7	c #212121",
"8	c #393939",
"9	c #494949",
"0	c #454545",
"a	c #323232",
"b	c #090909",
"c	c #040404",
"d	c #1F1F1F",
"e	c #1D1D1D",
"f	c #020202",
".+@##@$.",
"+%&*=-#$",
"#;>,')&@",
"!~{]^,/%",
"()_:<[}|",
"12,3456#",
"@7890a!b",
"c@1de%bf"};
