/* XPM */
static char * mine_xpm[] = {
"8 8 30 1",
" 	c None",
".	c #010000",
"+	c #0B0101",
"@	c #190505",
"#	c #210505",
"$	c #270606",
"%	c #460C0C",
"&	c #591010",
"*	c #230505",
"=	c #4F0D0D",
"-	c #7B1616",
";	c #8E1919",
">	c #330808",
",	c #6E1313",
"'	c #941A1A",
")	c #9A1B1B",
"!	c #390A0A",
"~	c #781515",
"{	c #981B1B",
"]	c #9B1B1B",
"^	c #300808",
"/	c #691212",
"(	c #911919",
"_	c #1E0404",
":	c #701414",
"<	c #861717",
"[	c #070000",
"}	c #1F0505",
"|	c #380909",
"1	c #470D0D",
".+@##@+.",
"+$%&&%$+",
"*=-;;-=*",
">,'))',>",
"!~{]]{~!",
"^/())(/^",
"_%:<<:%_",
"[}|11|}["};
